<svg xmlns="http://www.w3.org/2000/svg" viewBox="0 0 64 64">
  <g fill="#000">
    <rect x="8" y="42" width="10" height="10" rx="2.4"/>
    <rect x="20" y="34" width="10" height="18" rx="2.4"/>
    <rect x="32" y="26" width="10" height="26" rx="2.4"/>
    <rect x="44" y="16" width="10" height="36" rx="2.4"/>
    <path d="M10 39c0-2.2 1.8-4 4-4h14c1.2 0 2.3.5 3.1 1.4l6.7 7.3c.7.8 1.8 1.3 2.9 1.3H54v7H38.1c-1.2 0-2.4-.5-3.2-1.4l-6.7-7.3c-.8-.8-1.8-1.3-3-1.3H10v-3z"/>
    <circle cx="28" cy="22" r="8"/>
    <circle cx="28" cy="22" r="3.5" fill="none" stroke="#000" stroke-width="7"/>
  </g>
</svg>
